<?xml version="1.0" encoding="UTF-8"?>
<svg xmlns="http://www.w3.org/2000/svg" xmlns:xlink="http://www.w3.org/1999/xlink" width="173pt" height="233pt" viewBox="0 0 173 233" version="1.1">
<g id="surface1">
<path style=" stroke:none;fill-rule:nonzero;fill:rgb(76.5625%,76.5625%,76.5625%);fill-opacity:1;" d="M 77.25 227.644531 C 77.25 225.617188 78.375 225.09375 79.574219 226.519531 C 80.324219 227.492188 80.324219 227.792969 79.425781 228.394531 C 77.773438 229.367188 77.25 229.21875 77.25 227.644531 Z M 77.25 227.644531 "/>
<path style=" stroke:none;fill-rule:nonzero;fill:rgb(76.5625%,76.5625%,76.5625%);fill-opacity:1;" d="M 122.25 210.542969 C 122.25 208.96875 122.398438 208.742188 123.375 209.566406 C 123.976563 210.09375 124.5 210.769531 124.5 211.066406 C 124.5 211.367188 123.976563 211.816406 123.375 212.117188 C 122.550781 212.417969 122.25 211.96875 122.25 210.542969 Z M 122.25 210.542969 "/>
<path style=" stroke:none;fill-rule:nonzero;fill:rgb(99.609375%,34.104919%,9.008789%);fill-opacity:1;" d="M 67.351563 88.667969 C 66.824219 87.242188 67.5 85.816406 68.699219 85.816406 C 69.300781 85.816406 69.75 86.566406 69.75 87.691406 C 69.75 89.644531 67.949219 90.316406 67.351563 88.667969 Z M 67.351563 88.667969 "/>
<path style=" stroke:none;fill-rule:nonzero;fill:rgb(99.609375%,34.104919%,9.008789%);fill-opacity:1;" d="M 60.375 83.644531 C 59.851563 82.742188 61.273438 81.84375 62.25 82.441406 C 63.074219 82.96875 62.550781 84.316406 61.5 84.316406 C 61.125 84.316406 60.675781 84.019531 60.375 83.644531 Z M 60.375 83.644531 "/>
<path style=" stroke:none;fill-rule:nonzero;fill:rgb(99.609375%,34.104919%,9.008789%);fill-opacity:1;" d="M 68.398438 81.167969 C 68.925781 79.742188 71.25 79.519531 71.25 80.867188 C 71.25 81.617188 70.574219 82.066406 69.675781 82.066406 C 68.773438 82.066406 68.25 81.691406 68.398438 81.167969 Z M 68.398438 81.167969 "/>
<path style=" stroke:none;fill-rule:nonzero;fill:rgb(97.65625%,32.93457%,41.575623%);fill-opacity:1;" d="M 74.25 198.316406 C 74.25 197.941406 75.601563 197.566406 77.175781 197.566406 C 78.824219 197.566406 80.398438 197.941406 80.625 198.316406 C 80.925781 198.769531 79.726563 199.066406 77.699219 199.066406 C 75.824219 199.066406 74.25 198.769531 74.25 198.316406 Z M 74.25 198.316406 "/>
<path style=" stroke:none;fill-rule:nonzero;fill:rgb(97.65625%,32.93457%,41.575623%);fill-opacity:1;" d="M 118.5 182.191406 C 118.5 181.441406 119.324219 181.066406 121.125 181.066406 C 122.925781 181.066406 123.75 181.441406 123.75 182.191406 C 123.75 182.941406 122.925781 183.316406 121.125 183.316406 C 119.324219 183.316406 118.5 182.941406 118.5 182.191406 Z M 118.5 182.191406 "/>
<path style=" stroke:none;fill-rule:nonzero;fill:rgb(31.37207%,43.138123%,68.943787%);fill-opacity:1;" d="M 74.398438 190.441406 C 73.574219 189.46875 73.949219 189.316406 77.25 189.316406 C 80.101563 189.316406 81 189.617188 81 190.441406 C 81 191.941406 75.75 191.941406 74.398438 190.441406 Z M 74.398438 190.441406 "/>
<path style=" stroke:none;fill-rule:nonzero;fill:rgb(31.37207%,43.138123%,68.943787%);fill-opacity:1;" d="M 119.25 177.691406 C 119.25 177.09375 119.550781 176.566406 119.925781 176.566406 C 120.300781 176.566406 121.125 176.34375 121.800781 176.117188 C 122.699219 175.816406 123 176.117188 123 177.242188 C 123 178.441406 122.550781 178.816406 121.125 178.816406 C 119.925781 178.816406 119.25 178.367188 119.25 177.691406 Z M 119.25 177.691406 "/>
<path style=" stroke:none;fill-rule:nonzero;fill:rgb(65.818787%,87.5%,92.576599%);fill-opacity:1;" d="M 50.25 147.992188 C 49.199219 147.691406 46.425781 146.867188 44.101563 146.191406 C 40.273438 145.144531 39.75 144.769531 39.75 143.042969 C 39.75 141.617188 40.050781 141.242188 40.949219 141.617188 C 41.625 141.84375 43.800781 142.066406 45.824219 142.066406 C 49.351563 142.066406 49.5 142.144531 51 145.144531 C 51.898438 146.867188 52.5 148.292969 52.351563 148.441406 C 52.199219 148.519531 51.300781 148.367188 50.25 147.992188 Z M 50.25 147.992188 "/>
<path style=" stroke:none;fill-rule:nonzero;fill:rgb(99.609375%,13.719177%,5.488586%);fill-opacity:1;" d="M 110.925781 150.09375 C 108 146.34375 107.925781 146.191406 108.75 142.21875 C 110.25 135.542969 114.375 133.066406 116.175781 137.941406 C 116.699219 139.367188 117.449219 140.566406 117.824219 140.566406 C 118.199219 140.566406 118.5 141.019531 118.5 141.542969 C 118.5 142.667969 115.351563 149.117188 114.601563 149.417969 C 114.226563 149.566406 114 150.167969 114 150.691406 C 114 152.71875 112.800781 152.417969 110.925781 150.09375 Z M 110.925781 150.09375 "/>
<path style=" stroke:none;fill-rule:nonzero;fill:rgb(99.609375%,13.719177%,5.488586%);fill-opacity:1;" d="M 112.050781 131.117188 C 112.351563 130.292969 112.800781 128.792969 113.023438 127.667969 C 113.324219 126.09375 113.851563 125.566406 115.199219 125.566406 C 118.273438 125.566406 117.300781 129.46875 113.773438 131.269531 C 111.675781 132.394531 111.523438 132.394531 112.050781 131.117188 Z M 112.050781 131.117188 "/>
<path style=" stroke:none;fill-rule:nonzero;fill:rgb(24.705505%,65.039063%,80.076599%);fill-opacity:1;" d="M 81.601563 62.792969 C 79.5 60.316406 78.75 58.21875 78.75 54.46875 C 78.75 51.394531 79.125 50.34375 80.925781 48.394531 C 84.976563 44.117188 90 46.21875 91.425781 52.742188 C 92.25 56.792969 91.574219 60.394531 89.550781 62.644531 C 87.898438 64.519531 83.175781 64.519531 81.601563 62.792969 Z M 87.300781 59.117188 C 89.101563 57.394531 89.550781 54.542969 88.5 52.066406 C 87.75 50.34375 87.074219 49.816406 85.425781 49.816406 C 81.75 49.816406 80.25 55.816406 83.25 58.816406 C 85.050781 60.617188 85.800781 60.691406 87.300781 59.117188 Z M 87.300781 59.117188 "/>
<path style=" stroke:none;fill-rule:nonzero;fill:rgb(24.705505%,65.039063%,80.076599%);fill-opacity:1;" d="M 113.925781 56.34375 C 110.925781 54.019531 110.023438 47.867188 112.125 43.816406 C 114.226563 39.769531 117.976563 40.21875 120.75 44.792969 C 123.75 49.667969 121.5 57.316406 117.226563 57.316406 C 116.023438 57.316406 114.601563 56.867188 113.925781 56.34375 Z M 118.351563 52.96875 C 119.699219 52.066406 120.300781 47.34375 119.324219 45.394531 C 117.523438 42.167969 114 43.96875 114 48.09375 C 114 52.21875 115.949219 54.46875 118.351563 52.96875 Z M 118.351563 52.96875 "/>
<path style=" stroke:none;fill-rule:nonzero;fill:rgb(61.914063%,74.021912%,5.099487%);fill-opacity:1;" d="M 69.226563 129.316406 L 66 127.894531 L 67.351563 125.042969 C 70.5 118.066406 73.273438 115.441406 75.675781 116.941406 C 78.074219 118.367188 74.550781 128.492188 71.699219 128.644531 C 70.199219 128.644531 70.199219 128.71875 71.851563 129.316406 C 73.425781 129.992188 74.101563 130.816406 72.976563 130.816406 C 72.601563 130.816406 70.949219 130.144531 69.226563 129.316406 Z M 69.226563 129.316406 "/>
<path style=" stroke:none;fill-rule:nonzero;fill:rgb(61.914063%,74.021912%,5.099487%);fill-opacity:1;" d="M 139.273438 110.042969 C 138.300781 109.066406 138.75 105.46875 140.101563 103.742188 C 142.199219 101.269531 144.375 102.316406 143.699219 105.46875 C 143.023438 108.917969 140.625 111.394531 139.273438 110.042969 Z M 139.273438 110.042969 "/>
<path style=" stroke:none;fill-rule:nonzero;fill:rgb(61.914063%,74.021912%,5.099487%);fill-opacity:1;" d="M 64.5 105.019531 C 64.5 103.742188 67.949219 100.816406 69.449219 100.816406 C 71.476563 100.816406 71.476563 102.617188 69.449219 104.34375 C 67.199219 106.292969 64.5 106.667969 64.5 105.019531 Z M 64.5 105.019531 "/>
<path style=" stroke:none;fill-rule:nonzero;fill:rgb(61.914063%,74.021912%,5.099487%);fill-opacity:1;" d="M 137.851563 95.417969 C 137.101563 94.894531 136.199219 92.941406 135.824219 91.066406 C 133.875 82.292969 139.425781 75.167969 143.25 81.542969 C 147.148438 87.917969 142.800781 99.167969 137.851563 95.417969 Z M 137.851563 95.417969 "/>
<path style=" stroke:none;fill-rule:nonzero;fill:rgb(61.914063%,74.021912%,5.099487%);fill-opacity:1;" d="M 51.523438 54.917969 C 49.800781 53.566406 47.851563 48.542969 48.375 46.742188 C 49.425781 43.59375 52.199219 45.84375 54.074219 51.242188 C 54.75 53.191406 54.75 53.867188 53.851563 54.769531 C 53.023438 55.667969 52.574219 55.667969 51.523438 54.917969 Z M 51.523438 54.917969 "/>
<path style=" stroke:none;fill-rule:nonzero;fill:rgb(61.914063%,74.021912%,5.099487%);fill-opacity:1;" d="M 48.675781 38.941406 C 46.273438 37.667969 42.898438 32.867188 41.925781 29.269531 C 40.574219 24.394531 43.273438 22.066406 47.25 24.84375 C 49.648438 26.492188 50.625 27.691406 52.5 31.59375 C 54.226563 35.191406 54.449219 37.816406 53.101563 39.167969 C 51.976563 40.292969 51.074219 40.292969 48.675781 38.941406 Z M 48.675781 38.941406 "/>
<path style=" stroke:none;fill-rule:nonzero;fill:rgb(61.914063%,74.021912%,5.099487%);fill-opacity:1;" d="M 124.5 18.617188 C 123.523438 16.144531 123.523438 16.59375 125.324219 12.242188 C 127.949219 6.242188 131.476563 8.117188 130.199219 14.792969 C 129.226563 20.042969 125.851563 22.292969 124.5 18.617188 Z M 124.5 18.617188 "/>
<path style=" stroke:none;fill-rule:nonzero;fill:rgb(82.03125%,50.976563%,4.704285%);fill-opacity:1;" d="M 66.449219 178.816406 C 63.375 178.21875 62.25 177.167969 62.25 174.46875 C 62.25 172.816406 62.324219 172.816406 64.574219 174.019531 C 67.425781 175.441406 72.074219 174.769531 83.550781 171.242188 C 84.75 170.941406 86.023438 170.792969 86.324219 171.019531 C 87.300781 171.617188 87.148438 175.367188 86.101563 176.792969 C 84.375 179.117188 73.648438 180.242188 66.449219 178.816406 Z M 66.449219 178.816406 "/>
<path style=" stroke:none;fill-rule:nonzero;fill:rgb(82.03125%,50.976563%,4.704285%);fill-opacity:1;" d="M 69.601563 165.542969 C 69.300781 160.066406 69.675781 158.644531 71.476563 158.566406 C 71.773438 158.566406 72 159.769531 72 161.191406 C 72 163.816406 72 163.816406 75.226563 163.816406 C 77.023438 163.816406 80.476563 163.144531 82.949219 162.242188 C 86.625 160.96875 88.574219 160.742188 94.351563 161.042969 C 100.050781 161.417969 101.25 161.269531 101.25 160.367188 C 101.25 159.769531 101.773438 158.417969 102.449219 157.441406 C 104.023438 155.042969 110.101563 153.917969 111.148438 155.867188 C 112.273438 157.894531 115.050781 157.367188 116.101563 154.816406 C 116.699219 153.542969 117.675781 152.566406 118.425781 152.566406 C 119.101563 152.566406 120 152.269531 120.449219 151.96875 C 121.351563 151.144531 126.601563 149.644531 129.375 149.417969 C 131.550781 149.191406 131.625 149.042969 131.851563 145.144531 L 132.074219 141.09375 L 128.851563 141.617188 C 127.050781 141.917969 125.550781 142.441406 125.398438 142.816406 C 125.023438 143.71875 121.5 143.792969 121.5 142.894531 C 121.5 142.21875 123.449219 141.691406 135 139.144531 C 145.050781 136.96875 147.75 136.519531 147.75 137.34375 C 147.75 138.09375 141.226563 139.894531 136.726563 140.34375 L 133.5 140.71875 L 133.5 144.394531 C 133.5 148.667969 133.199219 148.59375 142.351563 146.644531 L 148.5 145.292969 L 148.5 147.394531 C 148.5 149.117188 148.125 149.566406 146.101563 149.941406 C 144.75 150.242188 143.476563 150.769531 143.175781 151.144531 C 142.949219 151.519531 141.300781 152.117188 139.425781 152.492188 C 135.148438 153.46875 130.574219 154.59375 124.5 156.316406 C 121.800781 157.066406 118.273438 157.894531 116.625 158.191406 C 114.976563 158.492188 113.476563 159.019531 113.25 159.316406 C 113.023438 159.691406 110.476563 160.519531 107.625 161.117188 C 100.351563 162.769531 96.375 163.742188 90.898438 165.394531 C 88.351563 166.144531 85.574219 166.816406 84.75 166.816406 C 83.925781 166.816406 83.25 167.117188 83.25 167.417969 C 83.25 167.792969 80.773438 168.617188 77.851563 169.367188 C 74.851563 170.042969 71.851563 170.792969 71.175781 171.019531 C 70.125 171.316406 69.898438 170.492188 69.601563 165.542969 Z M 69.601563 165.542969 "/>
<path style=" stroke:none;fill-rule:nonzero;fill:rgb(82.03125%,50.976563%,4.704285%);fill-opacity:1;" d="M 62.476563 169.441406 C 61.125 168.84375 60 168.019531 60 167.566406 C 60 167.191406 59.324219 166.816406 58.5 166.816406 C 57.601563 166.816406 55.648438 166.144531 54 165.316406 C 52.351563 164.492188 50.625 163.816406 50.175781 163.816406 C 49.648438 163.816406 47.625 163.066406 45.601563 162.167969 C 43.199219 161.117188 42 160.066406 42 159.167969 C 42 158.417969 41.699219 157.816406 41.25 157.816406 C 40.800781 157.816406 40.5 155.644531 40.5 152.867188 C 40.5 148.441406 40.648438 147.992188 41.851563 148.441406 C 42.523438 148.742188 45.226563 149.417969 47.699219 149.941406 C 52.273438 150.917969 55.5 152.417969 55.5 153.46875 C 55.5 154.21875 55.273438 154.21875 53.101563 153.394531 C 52.125 153.09375 49.949219 152.566406 48.148438 152.269531 L 44.925781 151.816406 L 45.148438 154.96875 C 45.375 157.894531 45.601563 158.269531 47.851563 158.941406 C 49.125 159.316406 50.25 159.917969 50.25 160.21875 C 50.25 160.519531 50.851563 160.816406 51.601563 160.816406 C 52.273438 160.816406 54.675781 161.492188 56.851563 162.316406 C 59.023438 163.144531 61.125 163.816406 61.5 163.816406 C 61.949219 163.816406 62.25 162.46875 62.25 160.742188 C 62.25 157.96875 62.398438 157.742188 63.976563 158.269531 C 64.875 158.492188 65.699219 158.792969 65.773438 158.941406 C 65.925781 159.019531 66.226563 161.644531 66.449219 164.792969 C 67.050781 171.167969 66.898438 171.394531 62.476563 169.441406 Z M 62.476563 169.441406 "/>
<path style=" stroke:none;fill-rule:nonzero;fill:rgb(82.03125%,50.976563%,4.704285%);fill-opacity:1;" d="M 118.875 164.566406 C 118.050781 164.191406 116.398438 163.894531 115.125 163.816406 C 113.101563 163.742188 113.25 163.59375 116.625 162.316406 C 118.726563 161.566406 121.273438 160.894531 122.476563 160.894531 C 123.601563 160.816406 124.5 160.59375 124.5 160.21875 C 124.5 159.617188 129.824219 157.816406 131.625 157.816406 C 133.199219 157.816406 133.050781 161.042969 131.476563 162.46875 C 128.550781 164.941406 122.25 165.992188 118.875 164.566406 Z M 118.875 164.566406 "/>
<path style=" stroke:none;fill-rule:nonzero;fill:rgb(64.646912%,65.818787%,6.272888%);fill-opacity:1;" d="M 39.75 141.394531 C 37.800781 141.09375 37.125 140.566406 37.125 139.441406 C 37.125 138.242188 36.523438 137.867188 34.5 137.71875 C 30.300781 137.34375 30.449219 136.441406 34.800781 136.367188 C 38.398438 136.292969 38.925781 136.441406 39.675781 138.019531 C 40.351563 139.59375 40.949219 139.816406 44.925781 139.816406 C 48.148438 139.816406 49.425781 140.117188 49.800781 140.941406 C 50.101563 141.84375 49.5 142.066406 46.273438 141.992188 C 44.101563 141.917969 41.175781 141.617188 39.75 141.394531 Z M 39.75 141.394531 "/>
<path style=" stroke:none;fill-rule:nonzero;fill:rgb(64.646912%,65.818787%,6.272888%);fill-opacity:1;" d="M 99.300781 138.691406 C 99 138.09375 99.75 136.367188 100.875 134.867188 C 102 133.441406 102.675781 132.019531 102.449219 131.792969 C 101.773438 131.117188 95.625 132.992188 90.75 135.242188 C 90.148438 135.542969 88.050781 136.292969 86.101563 136.816406 C 84.148438 137.417969 82.800781 138.167969 82.949219 138.46875 C 83.625 139.519531 82.425781 139.144531 81.300781 137.941406 C 80.023438 136.667969 80.023438 136.667969 82.199219 136.441406 C 83.101563 136.367188 85.273438 135.617188 87.074219 134.71875 C 96.375 130.367188 97.648438 129.917969 100.125 130.21875 C 101.550781 130.367188 102.449219 130.21875 102.226563 129.84375 C 102 129.46875 102.226563 129.316406 102.824219 129.46875 C 104.25 129.992188 103.726563 132.84375 101.625 135.617188 C 100.726563 136.894531 100.125 138.394531 100.273438 138.917969 C 100.5 139.367188 100.425781 139.816406 100.199219 139.816406 C 99.898438 139.816406 99.523438 139.292969 99.300781 138.691406 Z M 99.300781 138.691406 "/>
<path style=" stroke:none;fill-rule:nonzero;fill:rgb(64.646912%,65.818787%,6.272888%);fill-opacity:1;" d="M 28.5 131.269531 C 28.5 129.09375 29.023438 126.019531 29.625 124.59375 C 31.351563 120.394531 31.050781 117.167969 28.800781 114.992188 C 25.425781 111.917969 24.675781 109.21875 25.949219 104.492188 C 27.300781 99.167969 26.773438 96.769531 23.625 94.816406 C 19.648438 92.34375 18.75 90.316406 18.75 84.019531 C 18.75 77.117188 18.148438 75.691406 13.351563 72.09375 C 9.226563 68.867188 6.824219 64.519531 6.75 60.167969 C 6.75 57.917969 6.074219 56.644531 3.375 53.566406 C -1.125 48.46875 -1.125 46.441406 3.375 43.21875 C 6.523438 41.042969 6.75 40.59375 6.75 37.59375 C 6.75 32.566406 9.675781 30.394531 18.898438 28.441406 C 20.476563 28.144531 21.300781 27.167969 22.574219 24.316406 C 23.476563 22.21875 25.199219 19.667969 26.398438 18.691406 C 28.875 16.59375 31.199219 16.367188 37.5 17.71875 C 42.601563 18.769531 44.625 18.316406 48.375 15.316406 C 51.601563 12.769531 54.074219 12.46875 58.5 14.269531 C 61.425781 15.46875 61.574219 15.46875 63.976563 13.667969 C 68.699219 9.992188 71.324219 9.09375 78.375 8.71875 C 82.050781 8.566406 87 7.742188 89.324219 6.992188 C 92.324219 6.019531 94.648438 5.71875 97.273438 6.019531 C 100.273438 6.394531 101.625 6.167969 104.851563 4.519531 C 109.125 2.34375 112.875 2.042969 115.050781 3.691406 C 117.226563 5.34375 118.949219 5.117188 123.523438 2.492188 C 128.023438 -0.132813 131.851563 -0.207031 135.375 2.117188 C 137.25 3.394531 137.925781 6.542969 136.5 7.441406 C 135.074219 8.34375 135.75 11.71875 138.375 17.269531 C 140.476563 21.617188 141 23.71875 141 27.242188 C 141 30.617188 141.523438 32.792969 143.324219 36.617188 C 145.351563 41.042969 145.648438 42.316406 145.574219 48.019531 C 145.5 52.96875 145.949219 55.96875 147.449219 60.84375 C 148.800781 65.34375 149.25 68.042969 148.949219 69.992188 C 147.675781 77.042969 147.675781 78.242188 148.800781 81.691406 C 149.925781 84.917969 149.925781 85.59375 148.800781 89.644531 C 147.523438 94.292969 147.601563 102.019531 149.023438 102.917969 C 151.351563 104.417969 151.800781 112.21875 150.074219 121.292969 L 149.476563 124.441406 L 148.875 121.292969 C 148.574219 119.492188 148.050781 118.066406 147.675781 118.066406 C 147.300781 118.066406 147.226563 117.542969 147.449219 116.941406 C 148.050781 115.441406 146.851563 115.519531 144.675781 117.242188 C 142.5 118.894531 135.976563 119.792969 135.449219 118.441406 C 135.148438 117.542969 139.5 116.042969 144.976563 115.292969 C 146.699219 115.066406 147.75 114.542969 147.75 113.867188 C 147.75 113.269531 148.351563 111.917969 149.023438 110.867188 C 150.148438 109.144531 150.148438 108.769531 149.101563 106.96875 C 146.101563 101.644531 145.648438 95.269531 147.824219 88.292969 C 148.648438 85.519531 148.648438 84.617188 147.449219 81.316406 C 146.550781 78.84375 146.25 76.667969 146.625 75.09375 C 147.976563 68.566406 147.898438 66.46875 145.875 60.242188 C 144.226563 54.917969 143.925781 53.117188 144.300781 48.691406 C 144.75 43.894531 144.523438 42.917969 142.125 37.066406 C 140.25 32.492188 139.5 29.644531 139.5 26.644531 C 139.5 23.566406 138.898438 21.316406 137.175781 17.71875 C 134.625 12.542969 134.023438 7.441406 135.824219 6.242188 C 136.648438 5.644531 136.425781 5.191406 134.773438 3.691406 C 131.773438 1.066406 127.800781 1.144531 123.226563 4.066406 C 119.023438 6.769531 117.824219 6.84375 114 4.667969 L 111.074219 2.941406 L 106.726563 5.191406 C 103.050781 7.066406 101.625 7.367188 97.273438 7.21875 C 93.824219 7.144531 91.273438 7.519531 89.398438 8.34375 C 87.675781 9.09375 83.699219 9.769531 79.050781 9.992188 C 71.925781 10.441406 71.25 10.59375 66.824219 13.367188 C 63.074219 15.691406 61.726563 16.144531 59.773438 15.769531 C 51.824219 14.269531 51.375 14.269531 48.523438 16.816406 C 45.449219 19.519531 43.5 19.816406 34.875 18.769531 C 30.226563 18.242188 29.324219 18.394531 27.824219 19.59375 C 25.199219 21.691406 26.625 23.941406 30.898438 24.542969 C 36.375 25.292969 37.199219 26.941406 39.375 42.09375 C 39.75 44.566406 40.5 45.769531 43.425781 48.242188 C 47.398438 51.542969 48.300781 53.792969 49.125 62.566406 C 49.949219 71.269531 50.175781 72.09375 53.550781 75.84375 C 55.273438 77.792969 56.925781 80.269531 57.226563 81.242188 C 57.449219 82.21875 57 85.066406 56.175781 87.617188 C 53.925781 94.894531 54.226563 99.316406 57.523438 105.394531 C 60.300781 110.492188 60.300781 110.492188 59.023438 113.34375 C 57.300781 117.316406 56.625 123.019531 57.75 123.691406 C 58.425781 124.144531 58.425781 124.441406 57.675781 124.894531 C 55.949219 125.941406 55.800781 125.71875 55.574219 122.269531 C 55.5 120.394531 56.101563 117.242188 57 114.992188 C 58.800781 110.117188 58.800781 109.519531 57.375 108.019531 C 53.625 104.34375 52.199219 94.96875 54.375 88.816406 C 56.324219 83.34375 55.875 80.191406 52.800781 77.042969 C 49.273438 73.59375 48 70.367188 48 65.269531 C 48 57.167969 46.726563 53.566406 42.375 49.367188 C 38.699219 45.769531 38.324219 45.167969 37.875 41.117188 C 36.675781 30.09375 35.101563 26.566406 31.050781 26.566406 C 29.324219 26.566406 27.824219 25.96875 26.625 24.769531 C 24.75 22.894531 23.25 23.417969 23.25 25.894531 C 23.25 27.769531 19.726563 30.316406 17.175781 30.316406 C 12.074219 30.316406 8.25 33.394531 8.25 37.59375 C 8.25 39.917969 7.726563 40.894531 4.875 43.519531 C 1.050781 47.042969 0.675781 48.769531 3.449219 51.394531 C 6.375 54.09375 8.023438 57.316406 8.550781 61.292969 C 9.148438 66.316406 10.648438 68.71875 15 71.867188 C 19.648438 75.167969 20.324219 76.894531 20.101563 84.019531 L 19.875 89.566406 L 23.925781 93.316406 L 27.976563 96.992188 L 27.523438 100.96875 C 27.226563 103.144531 26.851563 105.992188 26.550781 107.269531 C 26.175781 109.21875 26.550781 110.117188 29.175781 113.117188 C 32.699219 117.242188 32.925781 118.59375 30.675781 125.566406 C 29.699219 128.644531 29.324219 131.34375 29.625 132.917969 C 29.925781 134.34375 29.773438 135.316406 29.25 135.316406 C 28.800781 135.316406 28.5 133.59375 28.5 131.269531 Z M 28.5 131.269531 "/>
<path style=" stroke:none;fill-rule:nonzero;fill:rgb(64.646912%,65.818787%,6.272888%);fill-opacity:1;" d="M 39.523438 128.042969 C 38.476563 126.992188 39.074219 123.542969 40.574219 121.894531 C 42.675781 119.644531 44.625 121.066406 43.949219 124.292969 C 43.273438 127.816406 41.101563 129.617188 39.523438 128.042969 Z M 39.523438 128.042969 "/>
<path style=" stroke:none;fill-rule:nonzero;fill:rgb(64.646912%,65.818787%,6.272888%);fill-opacity:1;" d="M 39.601563 102.394531 C 38.023438 101.042969 37.875 100.367188 37.949219 94.667969 C 37.949219 89.492188 38.25 87.84375 39.75 85.21875 C 42.75 79.96875 45.75 80.269531 47.324219 86.117188 C 48.375 90.019531 47.773438 95.34375 45.824219 99.242188 C 43.726563 103.292969 41.925781 104.191406 39.601563 102.394531 Z M 39.601563 102.394531 "/>
<path style=" stroke:none;fill-rule:nonzero;fill:rgb(64.646912%,65.818787%,6.272888%);fill-opacity:1;" d="M 23.773438 68.492188 C 21 66.84375 18.898438 59.566406 21.226563 59.566406 C 23.25 59.566406 27 64.894531 27 67.742188 C 27 69.46875 25.875 69.691406 23.773438 68.492188 Z M 23.773438 68.492188 "/>
<path style=" stroke:none;fill-rule:nonzero;fill:rgb(64.646912%,65.818787%,6.272888%);fill-opacity:1;" d="M 23.699219 50.117188 C 19.351563 45.84375 27.074219 30.542969 32.25 33.316406 C 35.699219 35.117188 33.300781 45.242188 28.574219 49.292969 C 25.726563 51.617188 25.273438 51.691406 23.699219 50.117188 Z M 23.699219 50.117188 "/>
<path style=" stroke:none;fill-rule:nonzero;fill:rgb(89.0625%,95.3125%,35.693359%);fill-opacity:1;" d="M 39.601563 137.867188 C 38.851563 136.21875 38.398438 136.066406 35.925781 136.441406 C 29.925781 137.492188 28.125 133.742188 30.675781 125.566406 C 32.925781 118.59375 32.699219 117.242188 29.175781 113.117188 C 26.550781 110.117188 26.175781 109.21875 26.550781 107.269531 C 26.851563 105.992188 27.226563 103.144531 27.523438 100.96875 L 27.976563 96.992188 L 23.925781 93.316406 L 19.875 89.566406 L 20.101563 84.019531 C 20.324219 76.894531 19.648438 75.167969 15 71.867188 C 10.648438 68.71875 9.148438 66.316406 8.550781 61.292969 C 8.023438 57.316406 6.375 54.09375 3.449219 51.394531 C 0.675781 48.769531 1.050781 47.042969 4.875 43.519531 C 7.726563 40.894531 8.25 39.917969 8.25 37.59375 C 8.25 33.394531 12.074219 30.316406 17.175781 30.316406 C 19.726563 30.316406 23.25 27.769531 23.25 25.894531 C 23.25 23.417969 24.75 22.894531 26.625 24.769531 C 27.824219 25.96875 29.324219 26.566406 31.050781 26.566406 C 35.101563 26.566406 36.675781 30.09375 37.875 41.117188 C 38.324219 45.167969 38.699219 45.769531 42.375 49.367188 C 46.726563 53.566406 48 57.167969 48 65.269531 C 48 70.367188 49.273438 73.59375 52.800781 77.042969 C 55.875 80.191406 56.324219 83.34375 54.375 88.816406 C 52.199219 94.96875 53.625 104.34375 57.375 108.019531 C 58.875 109.519531 58.800781 110.117188 56.925781 115.066406 C 56.023438 117.46875 55.5 120.316406 55.648438 121.96875 C 55.875 124.59375 55.800781 124.816406 53.925781 124.816406 C 52.800781 124.816406 50.773438 125.71875 49.5 126.84375 C 47.175781 128.71875 47.175781 128.941406 47.398438 134.34375 L 47.625 139.816406 L 44.023438 139.816406 C 40.949219 139.816406 40.351563 139.59375 39.601563 137.867188 Z M 42.675781 127.59375 C 44.175781 125.792969 44.476563 122.191406 43.273438 121.144531 C 42.300781 120.394531 41.851563 120.542969 40.574219 121.894531 C 39.074219 123.542969 38.476563 126.992188 39.523438 128.042969 C 40.273438 128.867188 41.773438 128.644531 42.675781 127.59375 Z M 45.824219 99.242188 C 47.773438 95.34375 48.375 90.019531 47.324219 86.117188 C 45.75 80.269531 42.75 79.96875 39.75 85.21875 C 38.25 87.84375 37.949219 89.492188 37.949219 94.667969 C 37.875 100.367188 38.023438 101.042969 39.601563 102.394531 C 41.925781 104.191406 43.726563 103.292969 45.824219 99.242188 Z M 27 67.742188 C 27 64.894531 23.25 59.566406 21.226563 59.566406 C 19.875 59.566406 19.949219 62.867188 21.375 65.566406 C 23.25 69.167969 27 70.59375 27 67.742188 Z M 28.574219 49.292969 C 33.300781 45.242188 35.699219 35.117188 32.25 33.316406 C 27.074219 30.542969 19.351563 45.84375 23.699219 50.117188 C 25.273438 51.691406 25.726563 51.617188 28.574219 49.292969 Z M 28.574219 49.292969 "/>
<path style=" stroke:none;fill-rule:nonzero;fill:rgb(100%,100%,100%);fill-opacity:1;" d="M 90 219.691406 C 90 217.292969 96.375 216.019531 97.273438 218.269531 C 97.875 219.84375 96.226563 220.816406 92.851563 220.816406 C 90.824219 220.816406 90 220.519531 90 219.691406 Z M 90 219.691406 "/>
<path style=" stroke:none;fill-rule:nonzero;fill:rgb(100%,100%,100%);fill-opacity:1;" d="M 73.949219 209.71875 C 73.726563 209.34375 73.875 207.769531 74.25 206.117188 C 74.625 204.542969 75.074219 202.292969 75.375 201.167969 C 75.675781 199.519531 76.199219 199.066406 77.773438 199.066406 L 79.726563 199.066406 L 79.199219 204.09375 C 78.898438 206.792969 78.523438 209.34375 78.300781 209.71875 C 77.773438 210.46875 74.476563 210.542969 73.949219 209.71875 Z M 73.949219 209.71875 "/>
<path style=" stroke:none;fill-rule:nonzero;fill:rgb(100%,100%,100%);fill-opacity:1;" d="M 134.550781 203.417969 C 133.199219 201.242188 139.949219 199.519531 141.675781 201.617188 C 142.425781 202.519531 142.273438 202.894531 141.074219 203.492188 C 139.125 204.542969 135.226563 204.542969 134.550781 203.417969 Z M 134.550781 203.417969 "/>
<path style=" stroke:none;fill-rule:nonzero;fill:rgb(100%,100%,100%);fill-opacity:1;" d="M 75.523438 196.144531 C 75.75 195.242188 76.574219 194.792969 77.699219 194.792969 C 78.976563 194.792969 79.5 195.167969 79.5 196.144531 C 79.5 197.191406 78.976563 197.566406 77.324219 197.566406 C 75.523438 197.566406 75.226563 197.269531 75.523438 196.144531 Z M 75.523438 196.144531 "/>
<path style=" stroke:none;fill-rule:nonzero;fill:rgb(100%,100%,100%);fill-opacity:1;" d="M 118.875 194.644531 C 118.648438 194.269531 118.726563 191.492188 118.949219 188.566406 C 119.476563 183.394531 119.550781 183.242188 121.425781 183.46875 C 123.375 183.691406 123.375 183.769531 123.074219 188.941406 C 123 191.867188 122.699219 194.417969 122.476563 194.792969 C 122.023438 195.542969 119.398438 195.46875 118.875 194.644531 Z M 118.875 194.644531 "/>
<path style=" stroke:none;fill-rule:nonzero;fill:rgb(100%,100%,100%);fill-opacity:1;" d="M 75.75 192.691406 C 75.75 192.019531 76.425781 191.566406 77.625 191.566406 C 78.824219 191.566406 79.5 192.019531 79.5 192.691406 C 79.5 193.367188 78.824219 193.816406 77.625 193.816406 C 76.425781 193.816406 75.75 193.367188 75.75 192.691406 Z M 75.75 192.691406 "/>
<path style=" stroke:none;fill-rule:nonzero;fill:rgb(100%,100%,100%);fill-opacity:1;" d="M 75.523438 188.042969 C 74.023438 182.492188 74.023438 182.417969 76.648438 182.71875 C 78.976563 182.941406 79.125 183.167969 79.351563 186.167969 C 79.574219 189.09375 79.425781 189.316406 77.699219 189.316406 C 76.574219 189.316406 75.75 188.792969 75.523438 188.042969 Z M 75.523438 188.042969 "/>
<path style=" stroke:none;fill-rule:nonzero;fill:rgb(100%,100%,100%);fill-opacity:1;" d="M 119.25 179.941406 C 119.25 179.269531 119.925781 178.816406 121.125 178.816406 C 122.324219 178.816406 123 179.269531 123 179.941406 C 123 180.617188 122.324219 181.066406 121.125 181.066406 C 119.925781 181.066406 119.25 180.617188 119.25 179.941406 Z M 119.25 179.941406 "/>
<path style=" stroke:none;fill-rule:nonzero;fill:rgb(100%,100%,100%);fill-opacity:1;" d="M 119.25 173.792969 C 119.25 172.21875 119.023438 170.117188 118.726563 169.21875 C 118.351563 167.644531 118.5 167.492188 120.074219 167.71875 C 121.574219 167.867188 121.949219 168.542969 122.550781 171.617188 C 123.074219 174.394531 123 175.367188 122.175781 175.894531 C 120.074219 177.242188 119.25 176.566406 119.25 173.792969 Z M 119.25 173.792969 "/>
<path style=" stroke:none;fill-rule:nonzero;fill:rgb(100%,100%,100%);fill-opacity:1;" d="M 63.148438 155.117188 C 58.726563 152.941406 54.601563 148.59375 52.199219 143.566406 C 51.375 141.691406 50.324219 139.96875 49.949219 139.667969 C 49.574219 139.441406 49.125 137.34375 48.898438 135.019531 C 48.148438 125.644531 53.398438 124.441406 68.25 130.667969 C 79.800781 135.542969 81.675781 137.269531 80.625 142.519531 C 80.101563 145.441406 79.800781 145.519531 75.898438 143.867188 C 73.5 142.894531 73.273438 142.59375 74.476563 141.992188 C 76.050781 141.09375 76.199219 139.816406 74.699219 139.816406 C 73.050781 139.816406 68.625 145.441406 67.648438 148.742188 C 66.523438 152.269531 66.523438 156.316406 67.5 156.316406 C 67.949219 156.316406 68.25 155.34375 68.25 154.21875 C 68.25 151.367188 68.699219 151.066406 71.324219 151.96875 C 73.949219 152.867188 74.101563 154.21875 71.625 155.867188 C 69.148438 157.519531 67.648438 157.367188 63.148438 155.117188 Z M 63.148438 155.117188 "/>
<path style=" stroke:none;fill-rule:nonzero;fill:rgb(100%,100%,100%);fill-opacity:1;" d="M 84.148438 146.941406 C 82.273438 146.117188 81.75 145.519531 82.050781 144.542969 C 82.273438 143.792969 82.5 141.917969 82.648438 140.417969 C 82.726563 138.394531 83.175781 137.566406 84.300781 137.34375 C 85.199219 137.117188 86.925781 136.59375 88.199219 136.21875 C 90.300781 135.542969 91.050781 135.769531 93.824219 137.644531 C 95.773438 138.917969 97.648438 139.59375 98.398438 139.367188 C 100.125 138.84375 100.125 140.34375 98.324219 143.269531 C 97.199219 145.144531 96.148438 145.742188 92.550781 146.492188 C 90.074219 147.09375 87.824219 147.617188 87.375 147.769531 C 87 147.917969 85.5 147.542969 84.148438 146.941406 Z M 84.148438 146.941406 "/>
<path style=" stroke:none;fill-rule:nonzero;fill:rgb(100%,100%,100%);fill-opacity:1;" d="M 118.351563 136.441406 C 116.773438 133.21875 116.773438 133.066406 118.050781 131.644531 C 119.398438 130.144531 119.398438 130.21875 122.476563 132.394531 L 125.550781 134.644531 L 128.023438 130.742188 C 129.375 128.566406 130.574219 126.542969 130.648438 126.167969 C 130.800781 125.792969 133.726563 127.21875 137.25 129.316406 C 140.773438 131.34375 143.851563 133.066406 144.226563 133.066406 C 144.523438 133.066406 144.75 133.367188 144.75 133.667969 C 144.75 134.191406 122.476563 139.816406 120.523438 139.816406 C 120.226563 139.816406 119.25 138.316406 118.351563 136.441406 Z M 118.351563 136.441406 "/>
<path style=" stroke:none;fill-rule:nonzero;fill:rgb(100%,100%,100%);fill-opacity:1;" d="M 94.726563 136.144531 C 93.449219 135.09375 93.226563 134.566406 93.976563 134.042969 C 95.101563 133.21875 101.25 131.34375 101.699219 131.71875 C 102.148438 132.242188 98.023438 137.566406 97.199219 137.566406 C 96.75 137.492188 95.625 136.894531 94.726563 136.144531 Z M 94.726563 136.144531 "/>
<path style=" stroke:none;fill-rule:nonzero;fill:rgb(100%,100%,100%);fill-opacity:1;" d="M 121.199219 129.542969 C 118.726563 127.59375 117.898438 126.617188 118.5 126.019531 C 119.175781 125.34375 129 123.992188 129.675781 124.519531 C 129.898438 124.667969 125.25 132.316406 124.875 132.316406 C 124.800781 132.316406 123.148438 131.117188 121.199219 129.542969 Z M 121.199219 129.542969 "/>
<path style=" stroke:none;fill-rule:nonzero;fill:rgb(100%,100%,100%);fill-opacity:1;" d="M 150.976563 126.542969 C 149.851563 126.167969 149.625 123.316406 150.675781 123.316406 C 151.050781 123.316406 151.726563 123.84375 152.25 124.441406 C 153.300781 125.71875 152.476563 127.066406 150.976563 126.542969 Z M 150.976563 126.542969 "/>
<path style=" stroke:none;fill-rule:nonzero;fill:rgb(100%,100%,100%);fill-opacity:1;" d="M 143.476563 123.316406 C 141 122.042969 138.449219 120.542969 138 119.941406 C 137.175781 118.96875 137.476563 118.816406 140.023438 118.816406 C 141.601563 118.816406 143.625 118.292969 144.449219 117.691406 C 146.023438 116.492188 148.050781 116.191406 147.449219 117.242188 C 147.148438 117.617188 147.375 118.066406 147.824219 118.21875 C 148.273438 118.367188 148.5 119.941406 148.351563 122.042969 L 148.125 125.644531 Z M 143.476563 123.316406 "/>
<path style=" stroke:none;fill-rule:nonzero;fill:rgb(100%,100%,100%);fill-opacity:1;" d="M 156.375 118.816406 C 154.875 117.09375 154.949219 116.941406 157.5 115.96875 C 158.476563 115.59375 158.925781 115.144531 158.550781 114.917969 C 157.648438 114.316406 152.175781 116.269531 151.425781 117.394531 C 151.125 117.917969 150.898438 115.59375 150.976563 112.21875 C 151.125 107.417969 151.351563 106.144531 152.101563 106.441406 C 152.699219 106.667969 153.523438 106.816406 153.976563 106.816406 C 154.5 106.816406 156.976563 108.167969 159.523438 109.742188 C 164.699219 113.042969 164.925781 114.09375 161.25 118.066406 C 158.773438 120.691406 158.175781 120.84375 156.375 118.816406 Z M 156.375 118.816406 "/>
<path style=" stroke:none;fill-rule:nonzero;fill:rgb(100%,100%,100%);fill-opacity:1;" d="M 93.449219 92.042969 C 93.074219 87.992188 93.148438 86.191406 93.824219 85.816406 C 94.273438 85.519531 97.425781 84.992188 100.800781 84.769531 C 104.101563 84.46875 107.398438 84.09375 108.148438 83.867188 C 109.125 83.566406 109.574219 84.316406 110.175781 87.316406 C 111.375 92.941406 111.300781 93.394531 109.199219 92.867188 C 107.925781 92.566406 106.875 92.941406 105.75 94.066406 C 104.175781 95.644531 98.023438 97.816406 95.175781 97.816406 C 94.199219 97.816406 93.824219 96.617188 93.449219 92.042969 Z M 93.449219 92.042969 "/>
<path style=" stroke:none;fill-rule:nonzero;fill:rgb(100%,100%,100%);fill-opacity:1;" d="M 128.324219 92.417969 C 128.398438 89.941406 129.375 87.617188 129.976563 88.59375 C 130.648438 89.644531 129.75 94.066406 128.925781 94.066406 C 128.550781 94.066406 128.25 93.316406 128.324219 92.417969 Z M 128.324219 92.417969 "/>
<path style=" stroke:none;fill-rule:nonzero;fill:rgb(100%,100%,100%);fill-opacity:1;" d="M 114.449219 85.367188 C 114.148438 84.316406 114.074219 83.269531 114.226563 83.117188 C 114.375 82.894531 117 82.066406 120.074219 81.242188 C 123.148438 80.417969 126.226563 79.59375 126.898438 79.367188 C 127.875 79.066406 128.324219 79.667969 128.925781 81.84375 C 130.050781 85.742188 129.976563 87.09375 128.851563 85.96875 C 127.726563 84.84375 125.101563 84.769531 123.976563 85.894531 C 123.300781 86.566406 122.773438 86.492188 121.875 85.519531 C 120.226563 83.867188 118.574219 84.019531 116.550781 85.894531 L 114.898438 87.394531 Z M 114.449219 85.367188 "/>
<path style=" stroke:none;fill-rule:nonzero;fill:rgb(100%,100%,100%);fill-opacity:1;" d="M 75.976563 76.144531 C 71.773438 75.09375 67.351563 71.042969 64.648438 65.941406 C 61.726563 60.46875 61.875 53.269531 64.875 47.71875 C 70.949219 36.617188 83.625 33.769531 93.523438 41.269531 C 98.101563 44.71875 99.976563 48.691406 100.351563 55.519531 C 100.574219 59.042969 100.351563 62.71875 99.824219 64.21875 C 98.773438 67.441406 94.574219 72.46875 91.125 74.566406 C 88.273438 76.367188 80.023438 77.191406 75.976563 76.144531 Z M 89.550781 65.492188 C 92.476563 63.242188 93.75 60.167969 93.75 55.667969 C 93.75 45.394531 84.523438 40.066406 79.050781 47.269531 C 74.925781 52.667969 76.351563 62.191406 81.898438 65.566406 C 85.050781 67.441406 87.074219 67.441406 89.550781 65.492188 Z M 89.550781 65.492188 "/>
<path style=" stroke:none;fill-rule:nonzero;fill:rgb(100%,100%,100%);fill-opacity:1;" d="M 104.625 63.019531 C 102.601563 62.191406 102.449219 61.894531 102.675781 58.59375 C 102.976563 53.71875 100.949219 47.566406 97.800781 43.441406 C 94.800781 39.46875 94.875 38.269531 98.398438 34.816406 C 102 31.144531 106.273438 29.34375 111.148438 29.34375 C 114.675781 29.34375 116.101563 29.792969 119.625 31.894531 C 125.625 35.492188 128.25 40.066406 128.25 46.96875 C 128.25 51.316406 128.023438 52.144531 126.601563 53.117188 C 124.199219 54.84375 123.601563 54.617188 124.125 52.144531 C 124.351563 50.941406 124.199219 48.617188 123.75 46.894531 C 121.351563 37.96875 113.625 36.542969 109.574219 44.34375 C 107.175781 48.992188 110.175781 57.84375 114.675781 59.269531 L 117.226563 60.09375 L 113.851563 62.117188 C 110.175781 64.292969 108 64.519531 104.625 63.019531 Z M 104.625 63.019531 "/>
<path style=" stroke:none;fill-rule:nonzero;fill:rgb(0%,0%,0%);fill-opacity:1;" d="M 87.824219 230.417969 C 82.875 228.992188 82.125 228.992188 80.023438 229.96875 C 78 230.941406 77.25 230.867188 72.601563 229.519531 L 67.5 228.019531 L 67.5 224.941406 C 67.5 223.21875 67.125 221.492188 66.75 221.117188 C 65.476563 219.84375 65.101563 213.167969 66.148438 211.066406 C 66.675781 210.019531 68.25 208.667969 69.601563 207.917969 C 73.050781 206.269531 73.050781 206.191406 73.5 202.066406 C 73.726563 199.441406 74.101563 198.542969 74.773438 198.917969 C 75.449219 199.367188 75.449219 200.566406 74.625 204.316406 C 73.574219 209.566406 73.875 210.542969 76.574219 210.167969 C 78.226563 209.941406 78.449219 209.417969 79.050781 204.542969 C 79.949219 197.269531 81.300781 197.417969 80.625 204.617188 L 80.101563 210.167969 L 82.949219 212.117188 C 86.324219 214.367188 87.226563 214.519531 88.574219 212.867188 C 89.851563 211.367188 94.199219 209.117188 97.351563 208.441406 C 102.898438 207.242188 110.25 213.691406 110.25 219.691406 C 110.25 222.242188 109.726563 223.144531 106.351563 226.441406 C 102.523438 230.042969 98.25 232.144531 94.800781 231.992188 C 93.976563 231.992188 90.898438 231.242188 87.824219 230.417969 Z M 79.425781 228.394531 C 80.324219 227.792969 80.324219 227.492188 79.574219 226.519531 C 78.375 225.09375 77.25 225.617188 77.25 227.644531 C 77.25 229.21875 77.773438 229.367188 79.425781 228.394531 Z M 96.675781 220.144531 C 97.273438 219.769531 97.5 218.941406 97.273438 218.269531 C 96.375 216.019531 90 217.292969 90 219.691406 C 90 220.96875 94.875 221.269531 96.675781 220.144531 Z M 96.675781 220.144531 "/>
<path style=" stroke:none;fill-rule:nonzero;fill:rgb(0%,0%,0%);fill-opacity:1;" d="M 133.875 214.144531 C 131.398438 213.46875 129 212.644531 128.476563 212.34375 C 128.023438 212.042969 126.375 212.34375 124.949219 213.09375 C 122.324219 214.292969 122.023438 214.292969 117 212.644531 C 111.75 210.992188 111.75 210.992188 111.75 208.21875 C 111.75 206.71875 111.226563 204.09375 110.550781 202.292969 C 108.375 196.667969 110.625 191.71875 115.800781 190.519531 L 117.976563 189.992188 L 117.601563 179.71875 C 117.148438 168.394531 116.851563 167.117188 114.523438 166.367188 C 113.625 166.144531 112.125 165.242188 111.226563 164.417969 C 109.648438 162.917969 109.648438 162.917969 99.523438 165.769531 L 89.324219 168.542969 L 89.773438 172.066406 C 90.148438 175.21875 89.925781 175.894531 88.050781 177.992188 C 86.773438 179.417969 84.75 180.691406 83.25 180.992188 L 80.625 181.519531 L 80.851563 185.417969 C 81 187.742188 80.851563 189.316406 80.324219 189.316406 C 79.949219 189.316406 79.5 187.894531 79.351563 186.167969 C 79.125 183.167969 78.976563 182.941406 76.648438 182.71875 C 74.023438 182.417969 74.023438 182.492188 75.523438 188.042969 C 75.75 188.867188 75.449219 189.316406 74.699219 189.316406 C 73.875 189.316406 73.5 188.644531 73.5 186.992188 C 73.5 183.019531 72.449219 181.96875 67.726563 181.367188 C 61.5 180.617188 59.398438 177.992188 59.925781 171.992188 C 60 171.167969 58.800781 170.269531 56.476563 169.292969 C 54.523438 168.46875 49.800781 166.519531 46.050781 164.941406 L 39.226563 162.09375 L 38.699219 157.144531 C 38.023438 149.566406 38.175781 141.316406 39 141.316406 C 39.449219 141.316406 39.75 142.144531 39.75 143.191406 C 39.75 144.691406 40.273438 145.144531 42.601563 145.742188 C 44.101563 146.191406 46.949219 147.019531 48.898438 147.617188 C 50.925781 148.21875 52.5 148.519531 52.5 148.367188 C 52.5 148.144531 51.976563 146.941406 51.300781 145.742188 C 50.699219 144.46875 50.023438 142.742188 49.800781 141.84375 C 49.648438 140.941406 49.050781 139.96875 48.375 139.667969 C 47.550781 139.144531 47.25 137.644531 47.25 133.816406 C 47.25 129.019531 47.398438 128.566406 49.5 126.769531 C 52.875 123.917969 57.824219 124.292969 66.375 127.96875 C 70.125 129.617188 74.398438 131.417969 75.898438 132.09375 C 78.824219 133.292969 81.523438 135.769531 80.851563 136.519531 C 80.550781 136.742188 79.125 136.144531 77.476563 135.167969 C 73.425781 132.617188 62.476563 128.117188 58.351563 127.21875 C 51.074219 125.71875 48.300781 127.96875 48.898438 135.019531 C 49.125 137.34375 49.574219 139.441406 49.949219 139.667969 C 50.398438 139.96875 51.148438 141.316406 51.75 142.742188 C 54.300781 149.042969 61.574219 155.644531 67.273438 156.769531 C 69.75 157.292969 73.5 155.417969 73.5 153.691406 C 73.5 152.644531 69.449219 150.917969 68.699219 151.59375 C 68.476563 151.894531 68.25 153.019531 68.25 154.21875 C 68.25 155.34375 67.949219 156.316406 67.5 156.316406 C 66.523438 156.316406 66.523438 152.269531 67.648438 148.742188 C 68.625 145.441406 73.050781 139.816406 74.699219 139.816406 C 76.199219 139.816406 76.050781 141.09375 74.476563 141.992188 C 73.273438 142.59375 73.5 142.894531 75.898438 143.867188 C 77.476563 144.542969 79.050781 145.066406 79.425781 145.066406 C 80.324219 145.066406 81.300781 140.269531 80.699219 138.691406 C 80.476563 138.09375 80.625 137.566406 81 137.566406 C 82.050781 137.566406 82.726563 141.019531 82.199219 143.644531 C 81.824219 145.667969 82.050781 146.042969 84.226563 146.941406 C 86.398438 147.84375 87.375 147.769531 91.949219 146.644531 C 96.675781 145.441406 97.273438 145.066406 98.773438 142.367188 C 99.75 140.792969 100.5 138.917969 100.5 138.242188 C 100.5 137.566406 101.175781 136.21875 101.925781 135.167969 C 102.75 134.117188 103.574219 131.792969 103.800781 129.917969 C 104.023438 128.042969 104.398438 125.941406 104.699219 125.34375 C 104.925781 124.59375 104.101563 123.242188 102.375 121.667969 C 98.550781 118.144531 98.324219 114.46875 101.476563 109.292969 C 103.050781 106.894531 103.875 104.417969 104.101563 101.792969 C 104.25 99.617188 104.25 97.816406 104.023438 97.816406 C 103.800781 97.816406 101.398438 98.34375 98.625 98.941406 C 95.925781 99.617188 93.375 99.917969 93 99.691406 C 92.699219 99.46875 92.175781 96.769531 91.875 93.691406 C 91.574219 90.542969 91.050781 87.84375 90.675781 87.691406 C 90.375 87.46875 87.75 88.21875 84.976563 89.417969 C 81.375 90.917969 79.425781 92.269531 78.375 93.917969 C 76.949219 96.167969 75 97.144531 75 95.566406 C 75 95.191406 76.199219 93.46875 77.699219 91.894531 C 79.574219 89.71875 81.898438 88.292969 86.101563 86.71875 C 93.300781 84.019531 93.898438 83.867188 103.726563 82.519531 C 116.324219 80.71875 131.101563 76.667969 132.375 74.566406 C 132.675781 74.117188 131.925781 73.816406 130.5 73.816406 C 129.226563 73.816406 127.125 73.292969 125.851563 72.617188 C 123.824219 71.566406 122.851563 71.492188 119.773438 72.242188 C 115.199219 73.292969 105 73.367188 105 72.316406 C 105 71.941406 105.449219 71.566406 105.976563 71.566406 C 111.976563 71.492188 121.425781 69.769531 124.875 68.191406 C 129.148438 66.167969 134.25 61.144531 134.25 58.96875 C 134.25 57.09375 132.148438 54.316406 130.648438 54.316406 C 128.476563 54.316406 122.023438 57.769531 119.023438 60.542969 C 116.25 63.09375 109.800781 66.917969 105.523438 68.492188 C 102.976563 69.46875 102.601563 67.667969 105.148438 66.542969 C 106.726563 65.867188 106.726563 65.792969 104.398438 64.96875 C 102.074219 64.144531 101.925781 64.21875 100.574219 66.917969 C 98.625 70.742188 92.398438 76.367188 88.875 77.566406 C 81.824219 79.894531 72.675781 78.019531 67.648438 73.144531 C 61.648438 67.292969 59.175781 57.691406 61.800781 50.042969 C 63 46.519531 63 46.441406 61.351563 45.167969 C 59.25 43.59375 60.074219 42.542969 62.550781 43.667969 C 64.125 44.34375 64.648438 44.117188 67.125 41.566406 C 69.976563 38.644531 69.976563 38.644531 68.699219 36.617188 C 67.800781 35.34375 67.574219 34.441406 68.101563 33.917969 C 68.773438 33.242188 69.75 34.292969 71.625 37.667969 C 71.699219 37.742188 72.75 37.367188 73.949219 36.691406 C 75.148438 36.09375 77.25 35.566406 78.675781 35.566406 L 81.148438 35.566406 L 80.625 31.441406 C 80.25 27.992188 80.324219 27.316406 81.300781 27.316406 C 82.273438 27.316406 82.5 28.21875 82.5 31.441406 L 82.5 35.566406 L 84.976563 35.566406 C 86.324219 35.566406 88.726563 36.242188 90.375 37.066406 C 93.148438 38.492188 93.375 38.492188 94.050781 37.21875 C 94.425781 36.542969 96.148438 34.59375 97.875 32.941406 C 101.023438 29.941406 101.023438 29.941406 99.898438 27.542969 C 99.226563 26.191406 99 24.84375 99.300781 24.542969 C 99.824219 24.019531 100.351563 24.46875 102.375 27.542969 C 102.976563 28.519531 103.648438 28.59375 106.648438 27.84375 C 109.800781 27.09375 110.175781 26.71875 110.398438 24.769531 C 110.699219 21.542969 112.5 21.316406 112.5 24.46875 C 112.5 26.867188 112.726563 27.09375 115.949219 27.917969 C 119.550781 28.894531 120.75 28.667969 120.75 27.019531 C 120.75 25.894531 122.851563 23.941406 123.449219 24.46875 C 123.675781 24.691406 123.226563 26.042969 122.550781 27.46875 L 121.351563 30.09375 L 124.726563 33.542969 C 128.699219 37.441406 129.75 40.519531 129.75 47.792969 C 129.75 52.59375 129.824219 52.816406 131.550781 52.816406 C 133.949219 52.816406 135.75 55.441406 135.75 58.894531 C 135.75 62.191406 133.273438 65.492188 128.773438 68.34375 C 125.324219 70.519531 125.851563 71.269531 131.476563 72.019531 C 133.425781 72.316406 135.226563 72.84375 135.449219 73.21875 C 135.976563 74.042969 133.050781 77.34375 131.25 77.941406 C 129.976563 78.316406 129.976563 78.691406 131.324219 83.71875 C 132.074219 86.644531 132.449219 89.941406 132.226563 91.066406 C 132 92.34375 132.449219 94.292969 133.5 96.242188 C 134.925781 99.167969 135 99.917969 134.324219 104.34375 C 133.875 107.417969 133.875 109.894531 134.324219 111.019531 C 134.699219 112.066406 135 114.019531 135 115.292969 C 135 118.816406 135.300781 119.042969 144 123.542969 L 148.125 125.644531 L 148.574219 123.542969 L 148.949219 121.441406 L 149.550781 123.84375 C 150.148438 126.316406 151.875 127.59375 152.699219 126.167969 C 153 125.71875 152.476563 124.742188 151.648438 123.992188 C 150.75 123.316406 150 122.191406 150 121.519531 C 150 119.644531 151.574219 116.71875 152.925781 116.191406 C 155.925781 114.917969 158.25 114.46875 158.625 115.066406 C 158.851563 115.367188 158.175781 115.894531 157.125 116.117188 C 154.875 116.71875 154.800781 117.394531 156.675781 119.117188 C 158.398438 120.691406 160.351563 119.941406 162.148438 117.167969 C 164.625 113.269531 164.476563 112.96875 159.523438 109.816406 C 156.976563 108.167969 154.351563 106.816406 153.675781 106.816406 C 152.175781 106.816406 149.476563 104.792969 150.148438 104.191406 C 150.898438 103.441406 162.824219 109.292969 164.550781 111.242188 C 165.898438 112.742188 165.898438 112.894531 164.625 115.816406 C 163.875 117.46875 162.675781 119.34375 161.925781 120.019531 C 161.101563 120.769531 160.5 121.519531 160.5 121.816406 C 160.5 122.117188 163.050781 124.816406 166.050781 127.816406 C 171.898438 133.519531 173.476563 136.59375 171.675781 138.769531 C 170.476563 140.191406 166.425781 139.816406 157.351563 137.492188 C 154.199219 136.742188 151.199219 136.066406 150.75 136.066406 C 150.074219 136.066406 150 138.09375 150.375 143.867188 L 150.898438 151.742188 L 146.925781 152.867188 C 144.675781 153.46875 141.300781 154.367188 139.351563 154.894531 C 135.824219 155.71875 135.75 155.792969 135.75 158.71875 C 135.75 161.117188 135.226563 162.242188 133.273438 164.191406 C 131.851563 165.617188 129.75 166.96875 128.550781 167.191406 C 127.351563 167.492188 125.925781 167.792969 125.398438 168.019531 C 124.648438 168.242188 124.574219 170.117188 124.875 176.34375 C 125.175781 180.84375 125.398438 184.816406 125.398438 185.191406 C 125.398438 185.644531 125.175781 187.667969 124.875 189.769531 L 124.351563 193.59375 L 127.199219 195.394531 C 131.324219 197.941406 131.175781 197.941406 133.351563 195.84375 C 136.273438 193.144531 141.824219 191.269531 145.125 191.867188 C 148.425781 192.542969 152.851563 196.292969 154.273438 199.667969 C 155.101563 201.617188 155.175781 202.742188 154.5 204.769531 C 153.300781 208.292969 147.074219 213.691406 142.949219 214.742188 C 138.898438 215.71875 139.425781 215.792969 133.875 214.144531 Z M 124.5 211.066406 C 124.5 210.769531 123.976563 210.09375 123.375 209.566406 C 122.398438 208.742188 122.25 208.96875 122.25 210.542969 C 122.25 211.96875 122.550781 212.417969 123.375 212.117188 C 123.976563 211.816406 124.5 211.367188 124.5 211.066406 Z M 141.074219 203.492188 C 142.273438 202.894531 142.425781 202.519531 141.675781 201.617188 C 139.949219 199.519531 133.199219 201.242188 134.550781 203.417969 C 135.226563 204.542969 139.125 204.542969 141.074219 203.492188 Z M 122.625 194.492188 C 123.375 193.367188 123.148438 173.792969 122.398438 170.566406 C 122.023438 168.769531 121.351563 167.867188 120.375 167.71875 C 118.949219 167.492188 118.875 168.019531 118.949219 180.84375 C 119.023438 188.191406 119.101563 194.417969 119.175781 194.792969 C 119.324219 195.617188 122.101563 195.394531 122.625 194.492188 Z M 81.074219 178.816406 C 85.5 177.992188 87 176.644531 87 173.492188 C 87 170.867188 86.324219 170.417969 83.550781 171.242188 C 72.074219 174.769531 67.425781 175.441406 64.574219 174.019531 C 62.324219 172.816406 62.25 172.816406 62.25 174.46875 C 62.25 175.441406 62.550781 176.644531 62.925781 177.242188 C 64.273438 179.269531 74.023438 180.167969 81.074219 178.816406 Z M 77.851563 169.367188 C 80.773438 168.617188 83.25 167.792969 83.25 167.417969 C 83.25 167.117188 83.925781 166.816406 84.75 166.816406 C 85.574219 166.816406 88.351563 166.144531 90.898438 165.394531 C 96.375 163.742188 100.351563 162.769531 107.625 161.117188 C 110.476563 160.519531 113.023438 159.691406 113.25 159.316406 C 113.476563 159.019531 114.976563 158.492188 116.625 158.191406 C 118.273438 157.894531 121.800781 157.066406 124.5 156.316406 C 130.574219 154.59375 135.148438 153.46875 139.425781 152.492188 C 141.300781 152.117188 142.949219 151.519531 143.175781 151.144531 C 143.476563 150.769531 144.75 150.242188 146.101563 149.941406 C 148.125 149.566406 148.5 149.117188 148.5 147.394531 L 148.5 145.292969 L 142.351563 146.644531 C 133.199219 148.59375 133.5 148.667969 133.5 144.394531 L 133.5 140.71875 L 136.726563 140.34375 C 141.226563 139.894531 147.75 138.09375 147.75 137.34375 C 147.75 136.519531 145.050781 136.96875 135 139.144531 C 123.449219 141.691406 121.5 142.21875 121.5 142.894531 C 121.5 143.792969 125.023438 143.71875 125.398438 142.816406 C 125.550781 142.441406 127.050781 141.917969 128.851563 141.617188 L 132.074219 141.09375 L 131.851563 145.144531 C 131.625 149.042969 131.550781 149.191406 129.375 149.417969 C 126.601563 149.644531 121.351563 151.144531 120.449219 151.96875 C 120 152.269531 119.101563 152.566406 118.425781 152.566406 C 117.675781 152.566406 116.699219 153.542969 116.101563 154.816406 C 115.050781 157.367188 112.273438 157.894531 111.148438 155.867188 C 110.101563 153.917969 104.023438 155.042969 102.449219 157.441406 C 101.773438 158.417969 101.25 159.769531 101.25 160.367188 C 101.25 161.269531 100.050781 161.417969 94.351563 161.042969 C 88.574219 160.742188 86.625 160.96875 82.949219 162.242188 C 80.476563 163.144531 77.023438 163.816406 75.226563 163.816406 C 72 163.816406 72 163.816406 72 161.191406 C 72 159.769531 71.773438 158.566406 71.476563 158.566406 C 69.675781 158.644531 69.300781 160.066406 69.601563 165.542969 C 69.898438 170.492188 70.125 171.316406 71.175781 171.019531 C 71.851563 170.792969 74.851563 170.042969 77.851563 169.367188 Z M 66.449219 164.792969 C 66.226563 161.644531 65.925781 159.019531 65.773438 158.941406 C 65.699219 158.792969 64.875 158.492188 63.976563 158.269531 C 62.398438 157.742188 62.25 157.96875 62.25 160.742188 C 62.25 162.46875 61.949219 163.816406 61.5 163.816406 C 61.125 163.816406 59.023438 163.144531 56.851563 162.316406 C 54.675781 161.492188 52.273438 160.816406 51.601563 160.816406 C 50.851563 160.816406 50.25 160.519531 50.25 160.21875 C 50.25 159.917969 49.125 159.316406 47.851563 158.941406 C 45.601563 158.269531 45.375 157.894531 45.148438 154.96875 L 44.925781 151.816406 L 48.148438 152.269531 C 49.949219 152.566406 52.125 153.09375 53.101563 153.394531 C 55.273438 154.21875 55.5 154.21875 55.5 153.46875 C 55.5 152.417969 52.273438 150.917969 47.699219 149.941406 C 45.226563 149.417969 42.523438 148.742188 41.851563 148.441406 C 40.648438 147.992188 40.5 148.441406 40.5 152.867188 C 40.5 155.644531 40.800781 157.816406 41.25 157.816406 C 41.699219 157.816406 42 158.417969 42 159.167969 C 42 160.066406 43.199219 161.117188 45.601563 162.167969 C 47.625 163.066406 49.648438 163.816406 50.175781 163.816406 C 50.625 163.816406 52.351563 164.492188 54 165.316406 C 55.648438 166.144531 57.601563 166.816406 58.5 166.816406 C 59.324219 166.816406 60 167.191406 60 167.566406 C 60 168.019531 61.125 168.84375 62.476563 169.441406 C 66.898438 171.394531 67.050781 171.167969 66.449219 164.792969 Z M 127.574219 164.492188 C 129 163.96875 130.726563 163.066406 131.476563 162.46875 C 133.050781 161.042969 133.199219 157.816406 131.625 157.816406 C 129.824219 157.816406 124.5 159.617188 124.5 160.21875 C 124.5 160.59375 123.601563 160.816406 122.476563 160.894531 C 121.273438 160.894531 118.726563 161.566406 116.625 162.316406 C 113.25 163.59375 113.101563 163.742188 115.125 163.816406 C 116.398438 163.894531 118.050781 164.191406 118.875 164.566406 C 121.050781 165.46875 124.648438 165.46875 127.574219 164.492188 Z M 101.324219 153.542969 C 102.601563 150.691406 105.449219 143.042969 107.625 136.441406 L 111.601563 124.441406 L 115.050781 124.21875 C 119.175781 123.917969 120.226563 122.644531 123.75 113.941406 C 125.023438 110.644531 127.351563 105.46875 128.773438 102.46875 C 130.875 98.191406 131.25 96.84375 130.574219 96.09375 C 129.226563 94.816406 126.601563 98.042969 123.148438 105.316406 C 121.648438 108.617188 119.925781 111.316406 119.476563 111.316406 C 117.976563 111.316406 118.199219 110.644531 122.175781 102.242188 C 126.601563 92.792969 128.023438 88.292969 126.976563 87.242188 C 125.25 85.519531 119.324219 94.367188 115.425781 104.566406 C 114 108.394531 111.976563 109.816406 112.800781 106.367188 C 113.550781 103.367188 116.925781 95.792969 119.101563 92.34375 C 120.898438 89.417969 121.050781 86.566406 119.476563 86.042969 C 118.125 85.59375 115.351563 90.46875 111.75 99.691406 C 108 109.21875 108.300781 108.617188 107.324219 108.019531 C 106.800781 107.644531 107.175781 105.769531 108.375 102.542969 C 110.550781 96.84375 110.699219 95.71875 109.050781 95.042969 C 107.175781 94.292969 106.199219 96.09375 106.273438 100.21875 C 106.351563 103.441406 105.898438 105.09375 103.800781 108.917969 C 100.351563 115.292969 100.425781 117.242188 104.398438 120.617188 L 107.550781 123.316406 L 104.699219 131.71875 C 101.851563 140.042969 96.75 151.292969 95.324219 152.117188 C 94.949219 152.34375 92.324219 151.742188 89.476563 150.769531 C 81.75 148.066406 74.023438 145.292969 72.675781 144.769531 C 71.773438 144.394531 71.175781 144.917969 70.5 146.566406 C 69.898438 147.917969 69.824219 149.191406 70.199219 149.566406 C 70.800781 150.167969 90.675781 156.917969 94.949219 158.042969 C 98.476563 158.941406 99 158.644531 101.324219 153.542969 Z M 114 150.691406 C 114 150.167969 114.226563 149.566406 114.601563 149.417969 C 115.351563 149.117188 118.5 142.667969 118.5 141.542969 C 118.5 141.019531 118.199219 140.566406 117.824219 140.566406 C 117.449219 140.566406 116.699219 139.367188 116.175781 137.941406 C 114.375 133.066406 110.25 135.542969 108.75 142.21875 C 107.925781 146.191406 108 146.34375 110.925781 150.09375 C 112.800781 152.417969 114 152.71875 114 150.691406 Z M 132.976563 137.042969 C 139.425781 135.542969 144.75 133.96875 144.75 133.667969 C 144.75 133.367188 144.523438 133.066406 144.226563 133.066406 C 143.851563 133.066406 140.773438 131.34375 137.25 129.316406 C 133.726563 127.21875 130.800781 125.792969 130.648438 126.167969 C 130.574219 126.542969 129.375 128.566406 128.023438 130.742188 L 125.550781 134.644531 L 122.476563 132.394531 C 119.398438 130.21875 119.398438 130.144531 118.050781 131.644531 C 116.773438 133.066406 116.773438 133.21875 118.351563 136.441406 C 119.25 138.316406 120.226563 139.816406 120.523438 139.816406 C 120.898438 139.816406 126.449219 138.542969 132.976563 137.042969 Z M 170.25 135.84375 C 170.25 134.71875 168.824219 132.769531 166.351563 130.367188 C 152.175781 117.019531 153.226563 117.769531 152.25 119.566406 C 151.5 120.917969 151.574219 121.367188 152.851563 122.269531 C 155.324219 123.992188 157.800781 128.566406 156.898438 129.46875 C 155.773438 130.59375 148.648438 127.96875 140.476563 123.617188 C 135.898438 121.21875 134.25 120.617188 134.25 121.441406 C 134.25 122.042969 133.726563 122.566406 133.050781 122.566406 C 132.148438 122.566406 131.925781 122.117188 132.375 120.917969 C 133.5 117.019531 133.574219 115.894531 132.675781 112.742188 C 132.148438 110.941406 131.773438 109.292969 131.773438 109.066406 C 131.773438 108.84375 132.074219 106.667969 132.300781 104.191406 L 132.824219 99.691406 L 130.949219 102.769531 C 129.898438 104.417969 128.476563 107.492188 127.800781 109.519531 C 127.125 111.542969 125.625 115.144531 124.425781 117.617188 C 123.226563 120.019531 122.25 122.269531 122.25 122.644531 C 122.25 123.542969 125.773438 123.46875 127.574219 122.566406 C 128.699219 121.894531 129.824219 122.34375 133.351563 124.667969 C 143.699219 131.71875 158.398438 137.269531 167.476563 137.492188 C 169.875 137.566406 170.25 137.34375 170.25 135.84375 Z M 116.550781 128.941406 C 117.449219 126.617188 117 125.566406 115.199219 125.566406 C 113.851563 125.566406 113.324219 126.09375 113.023438 127.667969 C 112.800781 128.792969 112.351563 130.292969 112.050781 131.117188 C 111.523438 132.394531 111.675781 132.394531 113.773438 131.269531 C 115.050781 130.667969 116.25 129.542969 116.550781 128.941406 Z M 127.425781 128.492188 C 128.773438 126.46875 129.824219 124.667969 129.675781 124.519531 C 129 123.992188 119.175781 125.34375 118.5 126.019531 C 117.898438 126.617188 118.726563 127.59375 121.199219 129.542969 C 123.148438 131.117188 124.800781 132.316406 124.875 132.316406 C 124.949219 132.316406 126.074219 130.59375 127.425781 128.492188 Z M 100.199219 96.769531 C 102.300781 96.242188 104.773438 95.042969 105.75 94.066406 C 106.875 92.941406 107.925781 92.566406 109.199219 92.867188 C 111.300781 93.394531 111.375 92.941406 110.175781 87.316406 C 109.574219 84.316406 109.125 83.566406 108.148438 83.867188 C 107.398438 84.09375 104.101563 84.46875 100.800781 84.769531 C 97.425781 84.992188 94.273438 85.519531 93.824219 85.816406 C 93.148438 86.191406 93.074219 87.992188 93.449219 92.042969 C 94.050781 98.566406 93.898438 98.492188 100.199219 96.769531 Z M 130.050781 91.742188 C 130.574219 88.96875 129.75 87.09375 128.925781 89.269531 C 128.101563 91.292969 128.101563 94.066406 128.925781 94.066406 C 129.300781 94.066406 129.75 93.019531 130.050781 91.742188 Z M 113.476563 86.492188 C 113.101563 85.144531 112.351563 83.867188 111.824219 83.71875 C 110.851563 83.417969 110.851563 83.492188 112.273438 90.542969 L 112.726563 92.941406 L 113.398438 90.917969 C 113.773438 89.792969 113.773438 87.917969 113.476563 86.492188 Z M 119.398438 84.316406 C 120.074219 84.316406 121.199219 84.84375 121.875 85.519531 C 122.773438 86.492188 123.300781 86.566406 123.976563 85.894531 C 125.101563 84.769531 127.726563 84.84375 128.851563 85.96875 C 129.976563 87.09375 130.050781 85.742188 128.925781 81.84375 C 128.324219 79.667969 127.875 79.066406 126.898438 79.367188 C 126.226563 79.59375 123.148438 80.417969 120.074219 81.242188 C 117 82.066406 114.375 82.894531 114.226563 83.117188 C 114.074219 83.269531 114.148438 84.316406 114.449219 85.367188 L 114.898438 87.394531 L 116.550781 85.894531 C 117.449219 84.992188 118.800781 84.316406 119.398438 84.316406 Z M 91.125 74.566406 C 94.574219 72.46875 98.773438 67.441406 99.824219 64.21875 C 100.351563 62.71875 100.574219 59.042969 100.351563 55.519531 C 100.050781 50.566406 99.675781 48.84375 98.023438 46.292969 C 89.851563 33.394531 72.226563 34.144531 64.875 47.71875 C 63.074219 51.019531 62.699219 52.59375 62.699219 56.941406 C 62.625 64.292969 65.398438 69.394531 72.226563 74.492188 C 75.824219 77.269531 86.773438 77.269531 91.125 74.566406 Z M 113.851563 62.117188 L 117.226563 60.09375 L 114.675781 59.269531 C 111.601563 58.292969 108.75 53.269531 108.75 48.84375 C 108.75 40.667969 116.476563 36.167969 121.050781 41.566406 C 123.375 44.34375 124.800781 49.144531 124.125 52.144531 C 123.601563 54.617188 124.199219 54.84375 126.601563 53.117188 C 128.023438 52.144531 128.25 51.316406 128.25 46.96875 C 128.25 40.066406 125.625 35.492188 119.625 31.894531 C 116.101563 29.792969 114.675781 29.34375 111.148438 29.34375 C 106.273438 29.34375 102 31.144531 98.398438 34.816406 C 94.875 38.269531 94.800781 39.46875 97.800781 43.441406 C 100.949219 47.566406 102.976563 53.71875 102.675781 58.59375 C 102.449219 61.894531 102.601563 62.191406 104.625 63.019531 C 108 64.519531 110.175781 64.292969 113.851563 62.117188 Z M 120.75 54.917969 C 123.449219 50.492188 121.949219 43.816406 117.75 41.566406 C 111.601563 38.269531 108.074219 51.84375 113.925781 56.34375 C 116.25 58.144531 119.175781 57.542969 120.75 54.917969 Z M 120.75 54.917969 "/>
<path style=" stroke:none;fill-rule:nonzero;fill:rgb(0%,0%,0%);fill-opacity:1;" d="M 81.898438 65.566406 C 76.351563 62.191406 74.925781 52.667969 79.050781 47.269531 C 84.523438 40.066406 93.75 45.394531 93.75 55.667969 C 93.75 60.167969 92.476563 63.242188 89.550781 65.492188 C 87.074219 67.441406 85.050781 67.441406 81.898438 65.566406 Z M 89.550781 62.644531 C 91.574219 60.394531 92.25 56.792969 91.425781 52.742188 C 90 46.21875 84.976563 44.117188 80.925781 48.394531 C 77.625 51.992188 77.925781 58.519531 81.601563 62.792969 C 83.175781 64.519531 87.898438 64.519531 89.550781 62.644531 Z M 89.550781 62.644531 "/>
<path style=" stroke:none;fill-rule:nonzero;fill:rgb(0%,0%,0%);fill-opacity:1;" d="M 83.25 58.816406 C 80.25 55.816406 81.75 49.816406 85.425781 49.816406 C 89.175781 49.816406 90.449219 56.042969 87.300781 59.117188 C 85.800781 60.691406 85.050781 60.617188 83.25 58.816406 Z M 83.25 58.816406 "/>
<path style=" stroke:none;fill-rule:nonzero;fill:rgb(0%,0%,0%);fill-opacity:1;" d="M 114.898438 52.066406 C 113.773438 50.191406 113.699219 45.917969 114.898438 44.71875 C 117.523438 42.09375 120.449219 45.167969 119.699219 49.667969 C 119.101563 53.566406 116.625 54.769531 114.898438 52.066406 Z M 114.898438 52.066406 "/>
<path style=" stroke:none;fill-rule:nonzero;fill:rgb(0%,0%,0%);fill-opacity:1;" d="M 74.175781 197.417969 C 74.101563 197.269531 73.949219 195.617188 73.800781 193.667969 C 73.574219 189.84375 74.625 188.71875 75.449219 191.941406 C 75.75 193.292969 76.425781 193.816406 77.699219 193.816406 C 78.824219 193.816406 79.5 193.367188 79.5 192.691406 C 79.5 192.09375 79.875 191.566406 80.25 191.566406 C 80.699219 191.566406 81 192.917969 81 194.566406 C 81 196.21875 80.699219 197.566406 80.25 197.566406 C 79.875 197.566406 79.5 196.96875 79.5 196.144531 C 79.5 195.167969 78.976563 194.792969 77.625 194.792969 C 76.574219 194.792969 75.75 195.167969 75.75 195.769531 C 75.75 196.59375 74.398438 198.019531 74.175781 197.417969 Z M 74.175781 197.417969 "/>
<path style=" stroke:none;fill-rule:nonzero;fill:rgb(0%,0%,0%);fill-opacity:1;" d="M 93.976563 137.71875 C 92.175781 136.59375 90.75 135.46875 90.75 135.167969 C 90.75 134.042969 92.773438 134.566406 94.726563 136.066406 C 97.351563 138.09375 97.726563 138.019531 100.125 134.566406 C 101.25 132.917969 102.375 131.71875 102.523438 131.867188 C 102.75 132.09375 102.074219 133.367188 101.023438 134.71875 C 100.050781 136.066406 99 137.792969 98.773438 138.542969 C 98.175781 140.269531 97.726563 140.191406 93.976563 137.71875 Z M 93.976563 137.71875 "/>
<path style=" stroke:none;fill-rule:nonzero;fill:rgb(0%,0%,0%);fill-opacity:1;" d="M 149.324219 108.617188 C 149.324219 107.792969 149.550781 107.566406 149.773438 108.167969 C 150 108.691406 149.925781 109.367188 149.699219 109.59375 C 149.476563 109.894531 149.25 109.441406 149.324219 108.617188 Z M 149.324219 108.617188 "/>
<path style=" stroke:none;fill-rule:nonzero;fill:rgb(100%,100%,21.166992%);fill-opacity:1;" d="M 94.949219 158.042969 C 90.675781 156.917969 70.800781 150.167969 70.199219 149.566406 C 69.824219 149.191406 69.898438 147.917969 70.5 146.566406 C 71.175781 144.917969 71.773438 144.394531 72.675781 144.769531 C 74.023438 145.292969 81.75 148.066406 89.476563 150.769531 C 92.324219 151.742188 94.949219 152.34375 95.324219 152.117188 C 96.75 151.292969 101.851563 140.042969 104.699219 131.71875 L 107.550781 123.316406 L 104.398438 120.617188 C 100.425781 117.242188 100.351563 115.292969 103.800781 108.917969 C 105.898438 105.09375 106.351563 103.441406 106.273438 100.21875 C 106.199219 96.09375 107.175781 94.292969 109.050781 95.042969 C 110.699219 95.71875 110.550781 96.84375 108.375 102.542969 C 107.175781 105.769531 106.800781 107.644531 107.324219 108.019531 C 108.300781 108.617188 108 109.21875 111.75 99.691406 C 115.351563 90.46875 118.125 85.59375 119.476563 86.042969 C 121.050781 86.566406 120.898438 89.417969 119.101563 92.34375 C 116.925781 95.792969 113.550781 103.367188 112.800781 106.367188 C 111.976563 109.816406 114 108.394531 115.425781 104.566406 C 119.324219 94.367188 125.25 85.519531 126.976563 87.242188 C 128.023438 88.292969 126.601563 92.792969 122.175781 102.242188 C 118.199219 110.644531 117.976563 111.316406 119.476563 111.316406 C 119.925781 111.316406 121.648438 108.617188 123.148438 105.316406 C 126.601563 98.042969 129.226563 94.816406 130.574219 96.09375 C 131.25 96.84375 130.875 98.191406 128.773438 102.46875 C 127.351563 105.46875 125.023438 110.644531 123.75 113.941406 C 120.226563 122.644531 119.175781 123.917969 115.050781 124.21875 L 111.601563 124.441406 L 107.625 136.441406 C 105.449219 143.042969 102.601563 150.691406 101.324219 153.542969 C 99 158.644531 98.476563 158.941406 94.949219 158.042969 Z M 94.949219 158.042969 "/>
<path style=" stroke:none;fill-rule:nonzero;fill:rgb(100%,100%,21.166992%);fill-opacity:1;" d="M 160.125 136.441406 C 151.425781 134.492188 141.226563 130.066406 133.351563 124.667969 C 129.824219 122.34375 128.699219 121.894531 127.574219 122.566406 C 125.773438 123.46875 122.25 123.542969 122.25 122.644531 C 122.25 122.269531 123.226563 120.019531 124.425781 117.617188 C 125.625 115.144531 127.125 111.542969 127.800781 109.519531 C 128.476563 107.492188 129.898438 104.417969 130.949219 102.769531 L 132.824219 99.691406 L 132.300781 104.191406 C 132.074219 106.667969 131.773438 108.84375 131.773438 109.066406 C 131.773438 109.292969 132.148438 110.941406 132.675781 112.742188 C 133.574219 115.894531 133.5 117.019531 132.375 120.917969 C 131.925781 122.117188 132.148438 122.566406 133.050781 122.566406 C 133.726563 122.566406 134.25 122.042969 134.25 121.441406 C 134.25 120.617188 135.898438 121.21875 140.476563 123.617188 C 148.648438 127.96875 155.773438 130.59375 156.898438 129.46875 C 157.800781 128.566406 155.324219 123.992188 152.851563 122.269531 C 151.574219 121.367188 151.5 120.917969 152.25 119.566406 C 153.226563 117.769531 152.175781 117.019531 166.351563 130.367188 C 171.300781 135.09375 171.675781 137.644531 167.476563 137.492188 C 165.898438 137.417969 162.601563 136.96875 160.125 136.441406 Z M 160.125 136.441406 "/>
<path style=" stroke:none;fill-rule:nonzero;fill:rgb(100%,100%,21.166992%);fill-opacity:1;" d="M 80.175781 134.867188 C 79.648438 134.269531 77.925781 132.992188 76.273438 132.09375 C 74.625 131.191406 72.601563 129.992188 71.699219 129.542969 L 70.125 128.566406 L 71.699219 128.566406 C 72.824219 128.566406 73.726563 127.59375 74.925781 124.96875 C 77.023438 120.542969 76.800781 117.019531 74.476563 116.71875 C 72.449219 116.417969 70.351563 118.667969 67.949219 123.769531 L 66 127.816406 L 63.226563 126.691406 C 57.375 124.21875 56.773438 123.542969 57.300781 119.71875 C 57.601563 117.769531 58.351563 114.917969 59.023438 113.34375 C 60.300781 110.492188 60.300781 110.492188 57.523438 105.394531 C 54.226563 99.316406 53.925781 94.894531 56.175781 87.617188 C 57 85.066406 57.449219 82.21875 57.226563 81.242188 C 56.925781 80.269531 55.273438 77.792969 53.550781 75.84375 C 50.175781 72.09375 49.949219 71.269531 49.125 62.566406 C 48.300781 53.792969 47.398438 51.542969 43.425781 48.242188 C 40.5 45.769531 39.75 44.566406 39.375 42.09375 C 37.199219 26.941406 36.375 25.292969 30.898438 24.542969 C 26.625 23.941406 25.199219 21.691406 27.824219 19.59375 C 29.324219 18.394531 30.226563 18.242188 34.875 18.769531 C 43.5 19.816406 45.449219 19.519531 48.523438 16.816406 C 51.375 14.269531 51.824219 14.269531 59.773438 15.769531 C 61.726563 16.144531 63.074219 15.691406 66.824219 13.367188 C 71.25 10.59375 71.925781 10.441406 79.050781 9.992188 C 83.699219 9.769531 87.675781 9.09375 89.398438 8.34375 C 91.273438 7.519531 93.824219 7.144531 97.273438 7.21875 C 101.625 7.367188 103.050781 7.066406 106.726563 5.191406 L 111.074219 2.941406 L 114 4.667969 C 117.824219 6.84375 119.023438 6.769531 123.226563 4.066406 C 127.800781 1.144531 131.773438 1.066406 134.773438 3.691406 C 136.425781 5.191406 136.648438 5.644531 135.824219 6.242188 C 134.023438 7.441406 134.625 12.542969 137.175781 17.71875 C 138.898438 21.316406 139.5 23.566406 139.5 26.644531 C 139.5 29.644531 140.25 32.492188 142.125 37.066406 C 144.523438 42.917969 144.75 43.894531 144.300781 48.691406 C 143.925781 53.117188 144.226563 54.917969 145.875 60.242188 C 147.898438 66.46875 147.976563 68.566406 146.625 75.09375 C 146.25 76.667969 146.550781 78.84375 147.449219 81.316406 C 148.648438 84.617188 148.648438 85.519531 147.824219 88.292969 C 146.023438 94.066406 146.023438 98.191406 147.675781 103.367188 C 149.550781 109.21875 149.550781 109.667969 148.050781 112.667969 C 147.300781 114.242188 146.324219 115.066406 145.273438 115.066406 C 144.375 115.066406 142.273438 115.59375 140.625 116.191406 C 135.976563 117.84375 135 117.691406 135 115.144531 C 135 113.941406 134.699219 112.066406 134.324219 111.019531 C 133.875 109.894531 133.875 107.417969 134.324219 104.34375 C 135 99.917969 134.925781 99.167969 133.5 96.242188 C 132.449219 94.292969 132 92.34375 132.226563 91.066406 C 132.449219 89.941406 132.074219 86.644531 131.324219 83.71875 C 129.976563 78.691406 129.976563 78.316406 131.25 77.941406 C 133.050781 77.34375 135.976563 74.042969 135.449219 73.21875 C 135.226563 72.84375 133.425781 72.316406 131.476563 72.019531 C 125.851563 71.269531 125.324219 70.519531 128.773438 68.34375 C 133.273438 65.492188 135.75 62.191406 135.75 58.894531 C 135.75 55.441406 133.949219 52.816406 131.550781 52.816406 C 129.824219 52.816406 129.75 52.59375 129.75 47.792969 C 129.75 40.519531 128.699219 37.441406 124.726563 33.542969 L 121.351563 30.09375 L 122.550781 27.46875 C 123.226563 26.042969 123.675781 24.691406 123.449219 24.46875 C 122.851563 23.941406 120.75 25.894531 120.75 27.019531 C 120.75 28.667969 119.550781 28.894531 115.949219 27.917969 C 112.726563 27.09375 112.5 26.867188 112.5 24.46875 C 112.5 21.316406 110.699219 21.542969 110.398438 24.769531 C 110.175781 26.71875 109.800781 27.09375 106.648438 27.84375 C 103.648438 28.59375 102.976563 28.519531 102.375 27.542969 C 100.351563 24.46875 99.824219 24.019531 99.300781 24.542969 C 99 24.84375 99.226563 26.191406 99.898438 27.542969 C 101.023438 29.941406 101.023438 29.941406 97.875 32.941406 C 96.148438 34.59375 94.425781 36.542969 94.050781 37.21875 C 93.375 38.492188 93.148438 38.492188 90.375 37.066406 C 88.726563 36.242188 86.324219 35.566406 84.976563 35.566406 L 82.5 35.566406 L 82.5 31.441406 C 82.5 28.21875 82.273438 27.316406 81.300781 27.316406 C 80.324219 27.316406 80.25 27.992188 80.625 31.441406 L 81.148438 35.566406 L 78.675781 35.566406 C 77.25 35.566406 75.148438 36.09375 73.949219 36.691406 C 72.75 37.367188 71.699219 37.742188 71.625 37.667969 C 69.75 34.292969 68.773438 33.242188 68.101563 33.917969 C 67.574219 34.441406 67.800781 35.34375 68.699219 36.617188 C 69.976563 38.644531 69.976563 38.644531 67.125 41.566406 C 64.648438 44.117188 64.125 44.34375 62.550781 43.667969 C 60.074219 42.542969 59.25 43.59375 61.351563 45.167969 C 63 46.441406 63 46.519531 61.800781 50.042969 C 59.175781 57.691406 61.648438 67.292969 67.648438 73.144531 C 72.675781 78.019531 81.824219 79.894531 88.875 77.566406 C 92.398438 76.367188 98.625 70.742188 100.574219 66.917969 C 101.925781 64.21875 102.074219 64.144531 104.398438 64.96875 C 106.726563 65.792969 106.726563 65.867188 105.148438 66.542969 C 102.601563 67.667969 102.976563 69.46875 105.523438 68.492188 C 109.800781 66.917969 116.25 63.09375 119.023438 60.542969 C 122.023438 57.769531 128.476563 54.316406 130.648438 54.316406 C 132.148438 54.316406 134.25 57.09375 134.25 58.96875 C 134.25 61.144531 129.148438 66.167969 124.875 68.191406 C 121.425781 69.769531 111.976563 71.492188 105.976563 71.566406 C 105.449219 71.566406 105 71.941406 105 72.316406 C 105 73.367188 115.199219 73.292969 119.773438 72.242188 C 122.851563 71.492188 123.824219 71.566406 125.851563 72.617188 C 127.125 73.292969 129.226563 73.816406 130.5 73.816406 C 131.925781 73.816406 132.675781 74.117188 132.375 74.566406 C 131.101563 76.667969 116.324219 80.71875 103.726563 82.519531 C 93.898438 83.867188 93.300781 84.019531 86.101563 86.71875 C 81.898438 88.292969 79.574219 89.71875 77.699219 91.894531 C 76.199219 93.46875 75 95.191406 75 95.566406 C 75 97.144531 76.949219 96.167969 78.375 93.917969 C 79.425781 92.269531 81.375 90.917969 84.976563 89.417969 C 87.75 88.21875 90.375 87.46875 90.675781 87.691406 C 91.050781 87.84375 91.574219 90.542969 91.875 93.691406 C 92.175781 96.769531 92.699219 99.46875 93 99.691406 C 93.375 99.917969 95.925781 99.617188 98.625 98.941406 C 101.398438 98.34375 103.800781 97.816406 104.023438 97.816406 C 104.25 97.816406 104.25 99.617188 104.101563 101.792969 C 103.875 104.417969 103.050781 106.894531 101.476563 109.292969 C 98.324219 114.394531 98.550781 118.144531 102.300781 121.59375 C 104.550781 123.691406 104.925781 124.367188 104.476563 126.394531 C 104.023438 128.71875 102 130.066406 98.851563 130.066406 C 97.351563 130.066406 95.476563 130.816406 87.300781 134.644531 C 83.550781 136.367188 81.523438 136.441406 80.175781 134.867188 Z M 141.976563 109.21875 C 142.648438 108.46875 143.476563 106.742188 143.699219 105.46875 C 144.074219 103.59375 143.925781 102.992188 142.875 102.542969 C 141.074219 101.941406 138.75 104.792969 138.75 107.492188 C 138.75 110.792969 139.949219 111.46875 141.976563 109.21875 Z M 69.449219 104.34375 C 71.476563 102.617188 71.476563 100.816406 69.449219 100.816406 C 67.949219 100.816406 64.5 103.742188 64.5 105.019531 C 64.5 106.667969 67.199219 106.292969 69.449219 104.34375 Z M 143.398438 93.316406 C 145.199219 89.792969 145.125 84.542969 143.25 81.542969 C 139.425781 75.167969 133.875 82.292969 135.824219 91.066406 C 137.101563 96.84375 141.074219 98.042969 143.398438 93.316406 Z M 69.75 87.691406 C 69.75 86.566406 69.300781 85.816406 68.699219 85.816406 C 67.5 85.816406 66.824219 87.242188 67.351563 88.667969 C 67.949219 90.316406 69.75 89.644531 69.75 87.691406 Z M 62.625 83.644531 C 63.148438 82.742188 61.726563 81.84375 60.75 82.441406 C 59.925781 82.96875 60.449219 84.316406 61.5 84.316406 C 61.875 84.316406 62.324219 84.019531 62.625 83.644531 Z M 71.25 80.867188 C 71.25 80.191406 70.726563 79.816406 69.976563 79.96875 C 68.101563 80.34375 67.875 82.066406 69.675781 82.066406 C 70.574219 82.066406 71.25 81.617188 71.25 80.867188 Z M 54.074219 51.242188 C 52.199219 45.84375 49.425781 43.59375 48.375 46.742188 C 47.851563 48.542969 49.800781 53.566406 51.523438 54.917969 C 52.574219 55.667969 53.023438 55.667969 53.851563 54.769531 C 54.75 53.867188 54.75 53.191406 54.074219 51.242188 Z M 53.101563 39.167969 C 54.449219 37.816406 54.226563 35.191406 52.5 31.59375 C 50.625 27.691406 49.648438 26.492188 47.25 24.84375 C 41.25 20.71875 39.523438 27.46875 44.699219 34.96875 C 47.699219 39.167969 51.226563 41.042969 53.101563 39.167969 Z M 128.550781 18.917969 C 131.101563 15.242188 130.949219 8.566406 128.324219 8.566406 C 127.351563 8.566406 126.449219 9.769531 125.324219 12.242188 C 123.523438 16.59375 123.523438 16.144531 124.5 18.617188 C 125.398438 21.019531 127.050781 21.09375 128.550781 18.917969 Z M 128.550781 18.917969 "/>
<path style=" stroke:none;fill-rule:nonzero;fill:rgb(100%,100%,21.166992%);fill-opacity:1;" d="M 112.273438 90.542969 C 110.851563 83.492188 110.851563 83.417969 111.824219 83.71875 C 113.25 84.167969 114.226563 88.59375 113.398438 90.917969 L 112.726563 92.941406 Z M 112.273438 90.542969 "/>
</g>
</svg>
